<svg width="30" height="30" viewBox="0 0 30 30" fill="none" xmlns="http://www.w3.org/2000/svg">
<path d="M10.5556 9.44444V5M19.4444 9.44444V5M9.44444 13.8889H20.5556M7.22222 25H22.7778C23.3671 25 23.9324 24.7659 24.3491 24.3491C24.7659 23.9324 25 23.3671 25 22.7778V9.44444C25 8.85507 24.7659 8.28984 24.3491 7.8731C23.9324 7.45635 23.3671 7.22222 22.7778 7.22222H7.22222C6.63285 7.22222 6.06762 7.45635 5.65087 7.8731C5.23413 8.28984 5 8.85507 5 9.44444V22.7778C5 23.3671 5.23413 23.9324 5.65087 24.3491C6.06762 24.7659 6.63285 25 7.22222 25Z" stroke="#6581F0" stroke-width="2" stroke-linecap="round" stroke-linejoin="round"/>
</svg>
