<svg width="30" height="30" viewBox="0 0 30 30" fill="none" xmlns="http://www.w3.org/2000/svg">
<path d="M23.8246 7.73108C23.9369 7.84371 24 7.99627 24 8.15532C24 8.31436 23.9369 8.46692 23.8246 8.57955L22.571 9.83424L20.1671 7.43063L21.4207 6.17594C21.5334 6.06328 21.6862 6 21.8456 6C22.005 6 22.1578 6.06328 22.2705 6.17594L23.8246 7.72988V7.73108ZM21.7212 10.6827L19.3173 8.2791L11.1283 16.4682C11.0621 16.5344 11.0123 16.615 10.9829 16.7038L10.0153 19.6049C9.99774 19.6578 9.99524 19.7146 10.0081 19.7688C10.0209 19.823 10.0486 19.8726 10.088 19.912C10.1274 19.9514 10.177 19.9791 10.2312 19.9919C10.2855 20.0048 10.3422 20.0023 10.3951 19.9847L13.2966 19.0173C13.3853 18.9881 13.466 18.9388 13.5322 18.873L21.7212 10.6827Z" fill="#4A5568"/>
<path fill-rule="evenodd" clip-rule="evenodd" d="M6 21.0714C6 21.5829 6.20319 22.0735 6.56487 22.4351C6.92654 22.7968 7.41708 23 7.92857 23H22.0714C22.5829 23 23.0735 22.7968 23.4351 22.4351C23.7968 22.0735 24 21.5829 24 21.0714V13.3571C24 13.1866 23.9323 13.0231 23.8117 12.9026C23.6912 12.782 23.5276 12.7143 23.3571 12.7143C23.1866 12.7143 23.0231 12.782 22.9026 12.9026C22.782 13.0231 22.7143 13.1866 22.7143 13.3571V21.0714C22.7143 21.2419 22.6466 21.4054 22.526 21.526C22.4054 21.6466 22.2419 21.7143 22.0714 21.7143H7.92857C7.75808 21.7143 7.59456 21.6466 7.474 21.526C7.35344 21.4054 7.28571 21.2419 7.28571 21.0714V6.92857C7.28571 6.75808 7.35344 6.59456 7.474 6.474C7.59456 6.35344 7.75808 6.28571 7.92857 6.28571H16.2857C16.4562 6.28571 16.6197 6.21798 16.7403 6.09743C16.8608 5.97687 16.9286 5.81335 16.9286 5.64286C16.9286 5.47236 16.8608 5.30885 16.7403 5.18829C16.6197 5.06773 16.4562 5 16.2857 5H7.92857C7.41708 5 6.92654 5.20319 6.56487 5.56487C6.20319 5.92654 6 6.41708 6 6.92857V21.0714Z" fill="#4A5568"/>
</svg>
