<svg width="30" height="30" viewBox="0 0 30 30" fill="none" xmlns="http://www.w3.org/2000/svg">
<path fill-rule="evenodd" clip-rule="evenodd" d="M7.54886 5.81061C9.42421 3.94629 11.9677 2.89893 14.6199 2.89893C17.272 2.89893 19.8155 3.94629 21.6908 5.81061C23.5662 7.67494 24.6198 10.2035 24.6198 12.8401C24.6198 15.4766 23.5662 18.0052 21.6908 19.8695L14.6199 26.8989L7.54886 19.8695C6.62023 18.9464 5.88359 17.8505 5.38101 16.6444C4.87843 15.4383 4.61975 14.1456 4.61975 12.8401C4.61975 11.5345 4.87843 10.2418 5.38101 9.03571C5.88359 7.82959 6.62023 6.7337 7.54886 5.81061ZM14.6199 15.6802C15.3776 15.6802 16.1043 15.381 16.64 14.8484C17.1758 14.3157 17.4768 13.5933 17.4768 12.8401C17.4768 12.0868 17.1758 11.3644 16.64 10.8317C16.1043 10.2991 15.3776 9.99988 14.6199 9.99988C13.8621 9.99988 13.1355 10.2991 12.5997 10.8317C12.0639 11.3644 11.7629 12.0868 11.7629 12.8401C11.7629 13.5933 12.0639 14.3157 12.5997 14.8484C13.1355 15.381 13.8621 15.6802 14.6199 15.6802Z" fill="#4A5568"/>
</svg>
