<svg width="30" height="30" viewBox="0 0 30 30" fill="none" xmlns="http://www.w3.org/2000/svg">
<path d="M8.33333 23C8.33333 23 7 23 7 21.6667C7 20.3333 8.33333 16.3333 15 16.3333C21.6667 16.3333 23 20.3333 23 21.6667C23 23 21.6667 23 21.6667 23H8.33333ZM15 15C16.0609 15 17.0783 14.5786 17.8284 13.8284C18.5786 13.0783 19 12.0609 19 11C19 9.93913 18.5786 8.92172 17.8284 8.17157C17.0783 7.42143 16.0609 7 15 7C13.9391 7 12.9217 7.42143 12.1716 8.17157C11.4214 8.92172 11 9.93913 11 11C11 12.0609 11.4214 13.0783 12.1716 13.8284C12.9217 14.5786 13.9391 15 15 15Z" fill="#6581F0"/>
</svg>
