<svg width="30" height="30" viewBox="0 0 30 30" fill="none" xmlns="http://www.w3.org/2000/svg">
<path d="M13.75 7.27154C12.4285 6.45702 10.9439 6 9.375 6C7.80605 6 6.3215 6.45702 5 7.27154V23.0822C6.3215 22.2678 7.80605 21.8107 9.375 21.8107C11.4607 21.8107 13.3974 22.6183 15 24C16.6026 22.6183 18.5393 21.8107 20.625 21.8107C22.194 21.8107 23.6785 22.2678 25 23.0822V7.27154C23.6785 6.45702 22.194 6 20.625 6C19.056 6 17.5715 6.45702 16.25 7.27154V18.6486C16.25 19.5218 15.6904 20.2296 15 20.2296C14.3097 20.2296 13.75 19.5218 13.75 18.6486V7.27154Z" fill="#4A5568"/>
</svg>
