<svg width="30" height="30" viewBox="0 0 30 30" fill="none" xmlns="http://www.w3.org/2000/svg">
<path fill-rule="evenodd" clip-rule="evenodd" d="M7.5 8.75C6.11929 8.75 5 9.86929 5 11.25V21.25C5 22.6307 6.11929 23.75 7.5 23.75H22.5C23.8807 23.75 25 22.6307 25 21.25V11.25C25 9.86929 23.8807 8.75 22.5 8.75H20.5177C20.1862 8.75 19.8682 8.6183 19.6339 8.38389L18.2323 6.98224C17.7634 6.51339 17.1275 6.25 16.4645 6.25H13.5355C12.8725 6.25 12.2366 6.51339 11.7678 6.98224L10.3661 8.38389C10.1317 8.6183 9.81375 8.75 9.48224 8.75H7.5ZM15 20C17.0711 20 18.75 18.3211 18.75 16.25C18.75 14.1789 17.0711 12.5 15 12.5C12.9289 12.5 11.25 14.1789 11.25 16.25C11.25 18.3211 12.9289 20 15 20Z" fill="#6581F0"/>
</svg>
